<svg width="29" height="29" viewBox="0 0 29 29" fill="none" xmlns="http://www.w3.org/2000/svg">
<g clip-path="url(#clip0_1014_7438)">
<path d="M21.2319 1.99658H7.76758C6.23702 1.99658 4.76914 2.6046 3.68687 3.68687C2.6046 4.76914 1.99658 6.23702 1.99658 7.76758V21.2319C1.99658 22.7624 2.6046 24.2303 3.68687 25.3126C4.76914 26.3949 6.23702 27.0029 7.76758 27.0029H21.2319C22.7624 27.0029 24.2303 26.3949 25.3126 25.3126C26.3949 24.2303 27.0029 22.7624 27.0029 21.2319V7.76758C27.0029 6.23702 26.3949 4.76914 25.3126 3.68687C24.2303 2.6046 22.7624 1.99658 21.2319 1.99658Z" fill="#D7E0FF"/>
<path d="M14.5 8.729V20.2689" stroke="#4147D5" stroke-width="2.07143" stroke-linecap="round" stroke-linejoin="round"/>
<path d="M8.729 14.5H20.2689" stroke="#4147D5" stroke-width="2.07143" stroke-linecap="round" stroke-linejoin="round"/>
<path d="M21.2319 1.99658H7.76758C6.23702 1.99658 4.76914 2.6046 3.68687 3.68687C2.6046 4.76914 1.99658 6.23702 1.99658 7.76758V21.2319C1.99658 22.7624 2.6046 24.2303 3.68687 25.3126C4.76914 26.3949 6.23702 27.0029 7.76758 27.0029H21.2319C22.7624 27.0029 24.2303 26.3949 25.3126 25.3126C26.3949 24.2303 27.0029 22.7624 27.0029 21.2319V7.76758C27.0029 6.23702 26.3949 4.76914 25.3126 3.68687C24.2303 2.6046 22.7624 1.99658 21.2319 1.99658Z" stroke="#4147D5" stroke-width="2.07143" stroke-linecap="round" stroke-linejoin="round"/>
</g>
<defs>
<clipPath id="clip0_1014_7438">
<rect width="29" height="29" fill="white"/>
</clipPath>
</defs>
</svg>
