<svg width="80" height="27" viewBox="0 0 80 27" fill="none" xmlns="http://www.w3.org/2000/svg">
<path d="M10.1176 22.5576C10.1176 23.9113 9.70964 24.9589 8.89375 25.7007C8.0964 26.4609 6.97454 26.8411 5.52819 26.8411C4.08183 26.8411 2.94143 26.4609 2.10699 25.7007C1.2911 24.9589 0.883153 23.9205 0.883153 22.5854V21.8901H4.58249V22.3629C4.58249 22.7709 4.66593 23.0861 4.83282 23.3086C4.99971 23.5497 5.2315 23.6702 5.52819 23.6702C5.80633 23.6702 6.02885 23.5497 6.19574 23.3086C6.36262 23.0675 6.44607 22.7338 6.44607 22.3073V19.3868H6.16792C5.90832 19.9987 5.556 20.4715 5.11097 20.8053C4.66593 21.1205 4.17454 21.2781 3.6368 21.2781C2.78381 21.2781 2.09772 20.9166 1.57852 20.1934C1.07785 19.4702 0.827524 18.4967 0.827524 17.2728V10.3748C0.827524 9.20662 1.07785 8.27947 1.57852 7.59338C2.07918 6.88874 2.74673 6.53642 3.58117 6.53642C4.11891 6.53642 4.61031 6.69404 5.05534 7.00927C5.51891 7.3245 5.88978 7.79735 6.16792 8.42781H6.44607V6.81457H10.1176V22.5576ZM6.44607 10.7642C6.33481 10.4675 6.17719 10.2358 5.97322 10.0689C5.78779 9.88344 5.59309 9.79073 5.38911 9.79073C5.12951 9.79073 4.91627 9.90199 4.74938 10.1245C4.60103 10.347 4.52686 10.6252 4.52686 10.9589V16.7722C4.52686 17.143 4.60103 17.449 4.74938 17.6901C4.91627 17.9311 5.12951 18.0517 5.38911 18.0517C5.59309 18.0517 5.78779 17.9589 5.97322 17.7735C6.17719 17.5881 6.33481 17.347 6.44607 17.0503V10.7642ZM14.8254 16.7722C14.8254 17.1987 14.9089 17.5325 15.0758 17.7735C15.2426 17.996 15.4744 18.1073 15.7711 18.1073C16.0678 18.1073 16.2996 17.996 16.4665 17.7735C16.6519 17.5325 16.7446 17.1987 16.7446 16.7722V15.6318H20.444V16.5775C20.444 18.0238 20.0175 19.1735 19.1645 20.0265C18.3115 20.8609 17.1711 21.2781 15.7433 21.2781C14.2969 21.2781 13.1658 20.8609 12.3499 20.0265C11.534 19.1735 11.1261 18.0238 11.1261 16.5775V11.2371C11.1261 9.79073 11.534 8.65033 12.3499 7.81589C13.1658 6.96291 14.2969 6.53642 15.7433 6.53642C17.1711 6.53642 18.3115 6.96291 19.1645 7.81589C20.0175 8.65033 20.444 9.79073 20.444 11.2371V14.7974H14.8254V16.7722ZM14.8254 12.7947H16.7446V11.0424C16.7446 10.6159 16.6519 10.2914 16.4665 10.0689C16.2996 9.82781 16.0678 9.70728 15.7711 9.70728C15.4744 9.70728 15.2426 9.82781 15.0758 10.0689C14.9089 10.2914 14.8254 10.6159 14.8254 11.0424V12.7947ZM25.124 16.7722C25.124 17.1987 25.2074 17.5325 25.3743 17.7735C25.5412 17.996 25.773 18.1073 26.0697 18.1073C26.3664 18.1073 26.5982 17.996 26.765 17.7735C26.9505 17.5325 27.0432 17.1987 27.0432 16.7722V15.6318H30.7425V16.5775C30.7425 18.0238 30.316 19.1735 29.4631 20.0265C28.6101 20.8609 27.4697 21.2781 26.0419 21.2781C24.5955 21.2781 23.4644 20.8609 22.6485 20.0265C21.8326 19.1735 21.4246 18.0238 21.4246 16.5775V11.2371C21.4246 9.79073 21.8326 8.65033 22.6485 7.81589C23.4644 6.96291 24.5955 6.53642 26.0419 6.53642C27.4697 6.53642 28.6101 6.96291 29.4631 7.81589C30.316 8.65033 30.7425 9.79073 30.7425 11.2371V14.7974H25.124V16.7722ZM25.124 12.7947H27.0432V11.0424C27.0432 10.6159 26.9505 10.2914 26.765 10.0689C26.5982 9.82781 26.3664 9.70728 26.0697 9.70728C25.773 9.70728 25.5412 9.82781 25.3743 10.0689C25.2074 10.2914 25.124 10.6159 25.124 11.0424V12.7947ZM35.4504 11.7934H35.7007L37.2861 6.81457H40.9298L38.5934 13.5457L41.0689 21H37.4252L35.7007 15.3536H35.4504V21H31.751V0.973509H35.4504V11.7934ZM45.3415 6.81457V8.62252H45.5918C46.0368 7.82516 46.4633 7.27814 46.8713 6.98146C47.2978 6.68477 47.7243 6.53642 48.1508 6.53642C48.9852 6.53642 49.6527 6.90728 50.1534 7.64901C50.6726 8.39073 50.9322 9.37351 50.9322 10.5974V17.3007C50.9322 18.506 50.6819 19.4702 50.1812 20.1934C49.6991 20.9166 49.0686 21.2781 48.2898 21.2781C47.7892 21.2781 47.2885 21.1113 46.7878 20.7775C46.3057 20.4252 45.907 19.8967 45.5918 19.1921H45.3415V26.6464H41.6421V6.81457H45.3415ZM45.3415 16.9113C45.4342 17.1894 45.5825 17.4212 45.7865 17.6066C45.9905 17.7735 46.1945 17.857 46.3984 17.857C46.658 17.857 46.862 17.7457 47.0104 17.5232C47.1772 17.3007 47.2607 17.0132 47.2607 16.6609V11.1536C47.2607 10.8199 47.1772 10.5417 47.0104 10.3192C46.862 10.0967 46.658 9.98543 46.3984 9.98543C46.1945 9.98543 45.9905 10.0781 45.7865 10.2636C45.5825 10.4305 45.4342 10.653 45.3415 10.9311V16.9113ZM51.9401 11.2371C51.9401 10.551 52.042 9.92053 52.246 9.34569C52.45 8.77086 52.7467 8.27947 53.1361 7.87152C53.5255 7.44503 54.0076 7.12053 54.5824 6.89801C55.1573 6.65695 55.8156 6.53642 56.5573 6.53642C57.3175 6.53642 57.9851 6.65695 58.5599 6.89801C59.1348 7.12053 59.6261 7.44503 60.0341 7.87152C60.442 8.27947 60.748 8.77086 60.952 9.34569C61.1559 9.92053 61.2579 10.551 61.2579 11.2371V16.5775C61.2579 17.2636 61.1559 17.894 60.952 18.4689C60.748 19.0437 60.442 19.5444 60.0341 19.9709C59.6261 20.3788 59.1348 20.7033 58.5599 20.9444C57.9851 21.1669 57.3175 21.2781 56.5573 21.2781C55.8156 21.2781 55.1573 21.1669 54.5824 20.9444C54.0076 20.7033 53.5255 20.3788 53.1361 19.9709C52.7467 19.5444 52.45 19.0437 52.246 18.4689C52.042 17.894 51.9401 17.2636 51.9401 16.5775V11.2371ZM55.6394 16.8C55.6394 17.2079 55.7228 17.5325 55.8897 17.7735C56.0752 17.996 56.3162 18.1073 56.6129 18.1073C56.9096 18.1073 57.1414 17.996 57.3083 17.7735C57.4937 17.5325 57.5864 17.2079 57.5864 16.8V11.0424C57.5864 10.6159 57.4937 10.2914 57.3083 10.0689C57.1414 9.82781 56.9096 9.70728 56.6129 9.70728C56.3162 9.70728 56.0752 9.82781 55.8897 10.0689C55.7228 10.2914 55.6394 10.6159 55.6394 11.0424V16.8ZM67.8293 11.8212V11.0424C67.8293 10.1709 67.5141 9.7351 66.8836 9.7351C66.6055 9.7351 66.383 9.83709 66.2161 10.0411C66.0678 10.245 65.9936 10.5325 65.9936 10.9033V10.9589C65.9936 11.3483 66.077 11.645 66.2439 11.849C66.4108 12.053 66.7353 12.2384 67.2174 12.4053L68.9976 13.1841C69.8691 13.555 70.5088 14.0093 70.9168 14.547C71.3247 15.0662 71.5287 15.7987 71.5287 16.7444V17.1338C71.5287 17.6901 71.4174 18.2185 71.1949 18.7192C70.9909 19.2199 70.685 19.6649 70.277 20.0543C69.8876 20.4252 69.3962 20.7219 68.8029 20.9444C68.228 21.1669 67.5697 21.2781 66.828 21.2781C66.0863 21.2781 65.428 21.1669 64.8532 20.9444C64.2969 20.7033 63.824 20.3881 63.4346 19.9987C63.0452 19.5907 62.7485 19.1086 62.5446 18.5523C62.3591 17.996 62.2664 17.3934 62.2664 16.7444V15.9934H65.9658V16.7444C65.9658 17.1523 66.0492 17.4768 66.2161 17.7179C66.383 17.9404 66.6055 18.0517 66.8836 18.0517C67.1803 18.0517 67.4121 17.9497 67.579 17.7457C67.7644 17.5232 67.8572 17.2358 67.8572 16.8834V16.8C67.8572 16.3735 67.7644 16.0675 67.579 15.8821C67.4121 15.6967 67.0598 15.502 66.5221 15.298L64.6863 14.547C63.8333 14.2318 63.2214 13.8053 62.8505 13.2675C62.4797 12.7298 62.2942 11.9881 62.2942 11.0424V10.7086C62.2942 10.1523 62.3962 9.62384 62.6002 9.12318C62.8042 8.60397 63.1009 8.15894 63.4903 7.78808C63.8797 7.39867 64.3525 7.09271 64.9088 6.8702C65.4836 6.64768 66.1419 6.53642 66.8836 6.53642C67.6254 6.53642 68.2836 6.65695 68.8585 6.89801C69.4333 7.12053 69.9154 7.43576 70.3048 7.84371C70.7128 8.23311 71.0187 8.70596 71.2227 9.26225C71.4267 9.8 71.5287 10.3934 71.5287 11.0424V11.8212H67.8293ZM72.1219 6.81457H73.4014V3.75497L77.0729 3.53245V6.81457H79.4371V9.98543H77.0729V16.5219C77.0729 17.0781 77.212 17.4675 77.4901 17.6901C77.7868 17.894 78.1299 17.996 78.5193 17.996C78.7974 17.996 79.1034 17.9497 79.4371 17.857L79.4928 21.0278C78.6954 21.1947 77.9537 21.2781 77.2676 21.2781C76.6928 21.2781 76.1643 21.204 75.6822 21.0556C75.2186 20.9073 74.8107 20.657 74.4583 20.3046C74.1246 19.9338 73.865 19.4609 73.6795 18.8861C73.4941 18.2927 73.4014 17.5695 73.4014 16.7166L73.3736 9.98543H72.1219V6.81457Z" fill="#4147D5"/>
</svg>
