<svg width="29" height="29" viewBox="0 0 29 29" fill="none" xmlns="http://www.w3.org/2000/svg">
<path d="M14.4993 16.4248C15.7746 16.4248 16.9978 15.9181 17.8996 15.0163C18.8014 14.1145 19.3081 12.8913 19.3081 11.616C19.3081 10.3406 18.8014 9.11743 17.8996 8.2156C16.9978 7.31377 15.7746 6.80713 14.4993 6.80713C13.2239 6.80713 12.0007 7.31377 11.0989 8.2156C10.1971 9.11743 9.69043 10.3406 9.69043 11.616C9.69043 12.8913 10.1971 14.1145 11.0989 15.0163C12.0007 15.9181 13.2239 16.4248 14.4993 16.4248Z" fill="white"/>
<path d="M22.7148 23.9258C20.4403 25.9142 17.5206 27.0082 14.4995 27.004C11.4784 27.0082 8.55868 25.9142 6.28418 23.9258C7.14184 22.5156 8.34822 21.3499 9.78711 20.5412C11.226 19.7326 12.8489 19.308 14.4995 19.3086C17.9795 19.3086 21.0265 21.1542 22.7148 23.9258Z" fill="white"/>
<path fill-rule="evenodd" clip-rule="evenodd" d="M6.28401 23.9254C7.14167 22.5152 8.34805 21.3496 9.78694 20.5409C11.2258 19.7322 12.8487 19.3076 14.4993 19.3082C17.9793 19.3082 21.0264 21.1538 22.7146 23.9254C24.6335 22.2525 25.996 20.0337 26.62 17.5656C27.244 15.0975 27.0997 12.4978 26.2065 10.1139C25.3132 7.72997 23.7136 5.67554 21.6213 4.22522C19.5291 2.7749 17.044 1.9978 14.4983 1.9978C11.9525 1.9978 9.46742 2.7749 7.37519 4.22522C5.28297 5.67554 3.68331 7.72997 2.79006 10.1139C1.89681 12.4978 1.75254 15.0975 2.37653 17.5656C3.00052 20.0337 4.36511 22.2525 6.28401 23.9254ZM14.4993 16.4248C15.7747 16.4248 16.9978 15.9181 17.8996 15.0163C18.8015 14.1145 19.3081 12.8913 19.3081 11.616C19.3081 10.3406 18.8015 9.11743 17.8996 8.2156C16.9978 7.31377 15.7747 6.80713 14.4993 6.80713C13.2239 6.80713 12.0008 7.31377 11.0989 8.2156C10.1971 9.11743 9.69048 10.3406 9.69048 11.616C9.69048 12.8913 10.1971 14.1145 11.0989 15.0163C12.0008 15.9181 13.2239 16.4248 14.4993 16.4248Z" fill="#D7E0FF"/>
<path d="M14.4993 16.4248C15.7746 16.4248 16.9978 15.9181 17.8996 15.0163C18.8014 14.1145 19.3081 12.8913 19.3081 11.616C19.3081 10.3406 18.8014 9.11743 17.8996 8.2156C16.9978 7.31377 15.7746 6.80713 14.4993 6.80713C13.2239 6.80713 12.0007 7.31377 11.0989 8.2156C10.1971 9.11743 9.69043 10.3406 9.69043 11.616C9.69043 12.8913 10.1971 14.1145 11.0989 15.0163C12.0007 15.9181 13.2239 16.4248 14.4993 16.4248Z" stroke="#4147D5" stroke-width="2.07143" stroke-linecap="round" stroke-linejoin="round"/>
<path d="M6.28564 23.9245C7.14403 22.5156 8.35039 21.3513 9.78875 20.5433C11.2271 19.7354 12.8491 19.311 14.4989 19.311C16.1486 19.311 17.7706 19.7354 19.209 20.5433C20.6473 21.3513 21.8537 22.5156 22.7121 23.9245" stroke="#4147D5" stroke-width="2.07143" stroke-linecap="round" stroke-linejoin="round"/>
<path d="M14.4994 27.0035C16.1548 27.0249 17.7979 26.7172 19.3334 26.0985C20.8689 25.4798 22.2662 24.5623 23.4443 23.3992C24.6225 22.2362 25.5579 20.8507 26.1963 19.3233C26.8348 17.7959 27.1635 16.1569 27.1635 14.5014C27.1635 12.846 26.8348 11.207 26.1963 9.67954C25.5579 8.15213 24.6225 6.7667 23.4443 5.60366C22.2662 4.44062 20.8689 3.52312 19.3334 2.90439C17.7979 2.28566 16.1548 1.97802 14.4994 1.99933C11.2115 2.04165 8.07267 3.37746 5.7626 5.71746C3.45252 8.05746 2.15723 11.2133 2.15723 14.5014C2.15723 17.7896 3.45252 20.9454 5.7626 23.2854C8.07267 25.6254 11.2115 26.9612 14.4994 27.0035Z" stroke="#4147D5" stroke-width="2.07143" stroke-linecap="round" stroke-linejoin="round"/>
</svg>
